<svg width="990" height="990" viewBox="0 0 990 990" fill="none" xmlns="http://www.w3.org/2000/svg">
<rect x="478.672" width="700" height="700" rx="80" transform="rotate(43.1426 478.672 0)" fill="#457AF8"/>
<path d="M496.381 132.645V407.884" stroke="white" stroke-width="40" stroke-linecap="round"/>
<path d="M496.381 588.308V863.548" stroke="white" stroke-width="40" stroke-linecap="round"/>
<path d="M577 370C577 390.987 594.013 408 615 408C635.987 408 653 390.987 653 370C653 349.013 635.987 332 615 332C594.013 332 577 349.013 577 370Z" fill="white"/>
<path d="M432.622 497.965C432.622 533.863 461.724 562.965 497.622 562.965C533.521 562.965 562.622 533.863 562.622 497.965C562.622 462.066 533.521 432.965 497.622 432.965C461.724 432.965 432.622 462.066 432.622 497.965Z" stroke="white" stroke-width="50"/>
<path d="M430.694 550.974L366.693 614.974" stroke="white" stroke-width="40"/>
<line y1="-20" x2="89.7406" y2="-20" transform="matrix(-0.731052 0.682321 0.731052 0.682321 627.605 398)" stroke="white" stroke-width="40"/>
<path d="M495.649 862.188L420.692 819.603C388.417 801.266 368.419 767.941 368.419 732.491L368.419 612.176" stroke="white" stroke-width="40"/>
<path d="M493.596 127.618L568.553 170.203C600.828 188.54 620.825 221.865 620.825 257.315L620.825 377.631" stroke="white" stroke-width="40"/>
<path d="M332 626C332 646.987 349.013 664 370 664C390.987 664 408 646.987 408 626C408 605.013 390.987 588 370 588C349.013 588 332 605.013 332 626Z" fill="white"/>
<path d="M460 864C460 884.987 477.013 902 498 902C518.987 902 536 884.987 536 864C536 843.013 518.987 826 498 826C477.013 826 460 843.013 460 864Z" fill="white"/>
<path d="M458 133C458 153.987 475.013 171 496 171C516.987 171 534 153.987 534 133C534 112.013 516.987 95 496 95C475.013 95 458 112.013 458 133Z" fill="white"/>
</svg>
